<svg xmlns="http://www.w3.org/2000/svg" viewBox="0 0 32 32">
  <!-- 耳 -->
  <polygon points="3,14 8,3 13,14" fill="#f472b6"/>
  <polygon points="19,14 24,3 29,14" fill="#f472b6"/>
  <!-- 耳の内側 -->
  <polygon points="5,13 8,6 11,13" fill="#fce7f3"/>
  <polygon points="21,13 24,6 27,13" fill="#fce7f3"/>
  <!-- 顔 -->
  <circle cx="16" cy="19" r="11" fill="#fce7f3"/>
  <!-- 目 -->
  <ellipse cx="12" cy="17" rx="2" ry="2.5" fill="#be185d"/>
  <ellipse cx="20" cy="17" rx="2" ry="2.5" fill="#be185d"/>
  <!-- 目のハイライト -->
  <circle cx="13" cy="16" r="0.7" fill="white"/>
  <circle cx="21" cy="16" r="0.7" fill="white"/>
  <!-- 鼻 -->
  <ellipse cx="16" cy="21.5" rx="1.5" ry="1" fill="#f9a8d4"/>
  <!-- ひげ -->
  <line x1="5" y1="21" x2="13.5" y2="22" stroke="#be185d" stroke-width="0.7" stroke-linecap="round"/>
  <line x1="5" y1="23" x2="13.5" y2="23" stroke="#be185d" stroke-width="0.7" stroke-linecap="round"/>
  <line x1="18.5" y1="22" x2="27" y2="21" stroke="#be185d" stroke-width="0.7" stroke-linecap="round"/>
  <line x1="18.5" y1="23" x2="27" y2="23" stroke="#be185d" stroke-width="0.7" stroke-linecap="round"/>
</svg>
